<?xml version="1.0" ?>
<!DOCTYPE svg  PUBLIC '-//W3C//DTD SVG 1.1//EN'  'http://www.w3.org/Graphics/SVG/1.1/DTD/svg11.dtd'>
<!-- Uploaded to: SVG Repo, www.svgrepo.com, Generator: SVG Repo Mixer Tools -->
<svg fill="#000000" width="800px" height="800px" viewBox="0 0 512 512" version="1.1" xml:space="preserve" xmlns="http://www.w3.org/2000/svg" xmlns:xlink="http://www.w3.org/1999/xlink">
<g id="_x34_87_x2C__Ai_x2C__brain_x2C__future_x2C__intelligence_x2C__machine">
<g>
<path d="M121.302,361.504h275.212V192.703c0-37.828-15.494-72.236-40.437-97.179    c-20.226-20.226-46.677-34.222-76.121-38.815h-0.169l-1.309-0.217l-0.404-0.061l-1.077-0.154l-0.617-0.063l-0.123-0.029    c-1.664-0.217-3.345-0.371-5.025-0.525h-0.032l-0.154-0.031l-0.755-0.061l-0.754-0.062h-0.077l-0.663-0.063l-0.77-0.03    l-0.309-0.031l-0.432-0.031l-0.771-0.03l-0.555-0.03l-0.187-0.031l-0.769-0.031l-0.758-0.031h-0.046l-0.709-0.03h-0.771    l-0.277-0.03h-0.478l-1.277-0.031h-0.249h-1.523c-37.846,0-72.253,15.477-97.181,40.419l-1.155,1.173l-1.158,1.201l-1.141,1.202    l-1.109,1.203l0,0l-1.109,1.232l-1.095,1.233l-1.081,1.265l-1.046,1.265l0,0l-1.049,1.294l-1.032,1.295l0,0l-1.018,1.295l0,0    l-1.003,1.325l0,0l-0.986,1.326l-0.969,1.356l-0.94,1.357l-0.958,1.356l0,0l-0.923,1.387l-0.895,1.388l0,0l-0.895,1.419    l-0.863,1.387l0,0l-0.863,1.449l-0.832,1.418l0,0l-0.832,1.449l-0.804,1.449l0,0l-0.786,1.479l0,0l-0.769,1.48l0,0l-0.754,1.479    l0,0l-0.741,1.51l-0.709,1.512l-0.709,1.511l0,0l-0.681,1.511l0,0l-0.663,1.541l0,0l-0.646,1.542l-0.632,1.572l0,0l-0.6,1.572l0,0    l-0.604,1.572l0,0l-0.555,1.572l-0.554,1.604l0,0l-0.541,1.572v0.03l-0.509,1.603l-0.491,1.604l0,0l-0.495,1.635l0,0l-0.446,1.633    l-0.432,1.635l0,0l-0.417,1.664l0,0l-0.4,1.635l0,0l-0.369,1.664l0,0l-0.354,1.697l-0.34,1.664l0,0l-0.323,1.695l-0.277,1.696l0,0    l-0.277,1.696l0,0l-0.249,1.695l-0.246,1.727l-0.2,1.695l-0.186,1.727l-0.168,1.758l-0.154,1.726l-0.109,1.757l-0.109,1.727    l-0.074,1.758l-0.049,1.758l-0.028,1.788l-0.032,1.757V361.504z M174.608,144.237c0.663-1.665,1.481-3.269,2.436-4.778    c2.558-4.009,6.089-7.308,10.251-9.527c0.786-8.693,4.625-16.494,10.438-22.291c6.552-6.566,15.6-10.605,25.587-10.605    c2.159,0,4.285,0.186,6.384,0.556l0.246,0.062c2.067,0.4,4.021,0.925,5.857,1.604c0.772-0.063,1.572-0.063,2.345-0.063    c4.067,0,8.202,0.74,12.023,2.281c9.928,4.008,17.698,13.073,17.698,27.225v142.777c0,3.978-0.771,7.738-2.144,11.13    c-2.268,5.612-6.229,10.298-11.083,13.505c-4.84,3.236-10.638,5.056-16.586,5.056c-3.022,0-6.106-0.462-9.16-1.479    c-4.222,2.344-8.756,3.453-13.195,3.453c-4.686,0-9.279-1.234-13.35-3.423c-4.054-2.188-7.584-5.396-10.174-9.372    c-0.863-1.357-1.6-2.775-2.25-4.286c-8.616-0.679-15.768-4.409-20.966-10.174c-5.949-6.567-9.279-15.755-9.279-25.836    c0-2.745,0.323-5.458,0.909-8.048c-3.099-3.145-5.625-6.905-7.43-11.037c-1.913-4.408-2.976-9.279-2.976-14.336    c0-8.447,2.899-16.218,7.739-22.354c0.477-0.615,0.972-1.171,1.467-1.757c-1.081-2.127-1.958-4.378-2.607-6.721    c-0.864-3.083-1.323-6.352-1.323-9.65c0-6.875,1.941-13.318,5.303-18.837C164.111,151.822,168.905,147.289,174.608,144.237z     M203.126,175.562c-0.677-0.679-1.632-1.11-2.681-1.11c-1.081,0-2.036,0.432-2.713,1.11c-0.526,0.524-0.895,1.172-1.049,1.942    v0.031v0.062l-0.032,0.093v0.03c-0.032,0.185-0.032,0.37-0.032,0.556c0,0.955,0.358,1.85,0.958,2.527l0.155,0.154    c0.691,0.678,1.649,1.109,2.713,1.109c1.049,0,2.004-0.432,2.681-1.078c0.709-0.709,1.109-1.664,1.109-2.713    C204.235,177.195,203.821,176.24,203.126,175.562z M219.406,242.865c-0.681-0.709-1.649-1.109-2.713-1.109    c-1.049,0-2.007,0.4-2.685,1.079c-0.709,0.709-1.123,1.665-1.123,2.713s0.414,2.034,1.091,2.713l0.386,0.309l0.045,0.03    l0.018,0.031h0.014l0.032,0.031l0.032,0.03h0.014c0.632,0.432,1.373,0.679,2.176,0.679c1.063,0,2.018-0.432,2.713-1.11    c0.678-0.679,1.109-1.665,1.109-2.713S220.084,243.544,219.406,242.865z M216.693,234.172c3.127,0,5.98,1.264,8.044,3.33    c2.081,2.064,3.362,4.932,3.362,8.046c0,3.145-1.295,5.981-3.345,8.048l-0.109,0.122c-2.081,2.004-4.871,3.237-7.953,3.237    c-1.881,0-3.671-0.462-5.229-1.295c-4.408,0.925-8.275,3.269-11.114,6.537c-3.067,3.515-4.931,8.139-4.931,13.195    c0,1.941,0.277,3.762,0.741,5.488c0.105,0.246,0.182,0.523,0.246,0.832c0.523,1.634,1.263,3.145,2.158,4.532    c1.85,2.897,4.426,5.21,7.384,6.813s6.334,2.497,9.756,2.497c3.607,0,7.292-0.986,10.669-3.145    c1.018-0.679,2.344-0.894,3.576-0.401c2.653,1.08,5.412,1.604,8.11,1.604c4.439,0,8.752-1.356,12.406-3.792    c3.625-2.405,6.552-5.857,8.248-10.051c1.018-2.497,1.572-5.304,1.572-8.294V128.699c0-10.545-5.671-17.297-12.933-20.195    c-2.881-1.171-6.026-1.757-9.202-1.757c-3.176,0-6.321,0.586-9.202,1.757c-7.261,2.898-12.936,9.65-12.936,20.195    c0,2.096-1.695,3.792-3.79,3.792c-2.099,0-3.794-1.696-3.794-3.792c0-11.068,4.762-19.023,11.592-23.895    c-6.566,0.74-12.487,3.73-16.926,8.201c-5.163,5.148-8.37,12.301-8.37,20.193c0,7.894,3.208,15.046,8.37,20.227    c4.085,4.068,9.406,6.936,15.354,7.953c-0.368-3.699,0.309-7.491,2.436-11.16c1.327-2.281,3.239-4.532,5.78-6.629    c1.604-1.326,3.994-1.079,5.32,0.524c1.309,1.603,1.078,3.978-0.523,5.304c-1.804,1.51-3.148,3.021-4.039,4.594    c-1.513,2.62-1.79,5.363-1.235,8.046c0.154,0.647,0.34,1.325,0.586,1.974l0.018,0.061l0.014,0.032l0.14,0.369    c0.814,2.066,2.063,4.101,3.59,5.95c2.499,3.021,5.657,5.643,8.847,7.461c1.822,1.049,2.436,3.361,1.39,5.181    c-1.049,1.788-3.362,2.405-5.166,1.388c-3.917-2.281-7.816-5.488-10.897-9.25c-1.513-1.85-2.839-3.854-3.885-5.92    c-9.005-0.617-17.098-4.531-23.092-10.514c-5.289-5.303-8.957-12.238-10.16-19.978c-1.618,1.325-3.036,2.929-4.145,4.687    c-1.976,3.113-3.148,6.813-3.148,10.821c0,4.409,1.421,8.51,3.794,11.809c1.79,2.436,4.099,4.501,6.812,5.95    c0.432-0.678,0.926-1.295,1.481-1.85c2.099-2.097,4.935-3.361,8.079-3.361c3.113,0,5.966,1.265,8.016,3.33    c2.095,2.097,3.358,4.934,3.358,8.078c0,3.113-1.263,5.95-3.327,8.016c-2.081,2.097-4.934,3.36-8.047,3.36    c-3.145,0-6.012-1.264-8.079-3.33l-0.246-0.276c-1.618-1.728-2.713-3.947-2.99-6.414c-4.471-2.004-8.324-5.18-11.16-9.094    c-3.239-4.502-5.18-9.959-5.257-15.848c-2.144,1.911-4.008,4.131-5.503,6.567c-2.639,4.315-4.162,9.433-4.162,14.891    c0,2.683,0.354,5.241,1.018,7.646c0.323,1.171,0.737,2.343,1.201,3.453c3.748-2.683,8.016-4.687,12.641-5.797    c2.035-0.462,4.071,0.802,4.548,2.806c0.477,2.035-0.772,4.069-2.79,4.533c-6.321,1.541-11.869,5.179-15.786,10.143    c-3.825,4.871-6.106,11.007-6.106,17.697c0,4.068,0.835,7.924,2.313,11.346c0.926,2.096,2.067,4.069,3.439,5.889    c1.604-3.206,3.685-6.136,6.12-8.725c6.194-6.506,14.814-10.73,24.402-11.192c2.081-0.093,3.854,1.511,3.962,3.576    c0.091,2.097-1.512,3.854-3.607,3.978c-6.875,0.308-13.133,3.113-17.881,7.492c6.071,6.443,19.499,1.295,19.544,1.295    c1.913-0.803,4.134,0.092,4.934,2.034c0.8,1.912-0.123,4.132-2.036,4.934c-0.06,0.03-17.667,6.69-27.314-2.437    c-2.776,4.408-4.38,9.65-4.38,15.231c0,8.263,2.622,15.6,7.275,20.78c3.425,3.761,7.956,6.381,13.445,7.337    c-0.095-0.925-0.14-1.819-0.14-2.774c0-6.938,2.558-13.289,6.798-18.16c3.021-3.484,6.907-6.197,11.332-7.83    c-0.432-1.203-0.663-2.498-0.663-3.854c0-3.114,1.263-5.981,3.331-8.016C210.728,235.436,213.577,234.172,216.693,234.172z     M300.149,170.629c-2.096,0-3.79-1.727-3.79-3.792c0-2.097,1.694-3.792,3.79-3.792h62.371c2.081,0,3.794,1.695,3.794,3.792    c0,2.065-1.713,3.792-3.794,3.792H300.149z M300.149,218.447c-2.096,0-3.79-1.695-3.79-3.792s1.694-3.792,3.79-3.792h62.371    c2.081,0,3.794,1.695,3.794,3.792s-1.713,3.792-3.794,3.792H300.149z M300.149,239.227c-2.096,0-3.79-1.694-3.79-3.791    c0-2.096,1.694-3.793,3.79-3.793h62.371c2.081,0,3.794,1.697,3.794,3.793c0,2.097-1.713,3.791-3.794,3.791H300.149z     M300.149,260.008c-2.096,0-3.79-1.695-3.79-3.762c0-2.097,1.694-3.791,3.79-3.791h62.371c2.081,0,3.794,1.694,3.794,3.791    c0,2.066-1.713,3.762-3.794,3.762H300.149z M300.149,280.818c-2.096,0-3.79-1.695-3.79-3.792s1.694-3.792,3.79-3.792h62.371    c2.081,0,3.794,1.695,3.794,3.792s-1.713,3.792-3.794,3.792H300.149z M300.149,301.6c-2.096,0-3.79-1.697-3.79-3.793    c0-2.097,1.694-3.793,3.79-3.793h62.371c2.081,0,3.794,1.696,3.794,3.793c0,2.096-1.713,3.793-3.794,3.793H300.149z     M300.149,322.379c-2.096,0-3.79-1.696-3.79-3.792c0-2.066,1.694-3.793,3.79-3.793h62.371c2.081,0,3.794,1.727,3.794,3.793    c0,2.096-1.713,3.792-3.794,3.792H300.149z M396.096,397.482c-1.354-1.325-3.204-2.158-5.24-2.158    c-2.035,0-3.885,0.833-5.211,2.158c-1.341,1.357-2.172,3.207-2.172,5.242c0,2.034,0.831,3.884,2.172,5.21    c1.326,1.325,3.176,2.158,5.211,2.158c2.036,0,3.886-0.833,5.227-2.158c1.34-1.326,2.158-3.176,2.158-5.21    C398.24,400.689,397.422,398.84,396.096,397.482z M390.855,387.74c4.117,0,7.861,1.695,10.575,4.377    c2.712,2.745,4.394,6.476,4.394,10.607c0,4.1-1.682,7.861-4.377,10.543c-2.716,2.744-6.461,4.409-10.592,4.409    c-4.13,0-7.861-1.665-10.573-4.378c-2.713-2.713-4.394-6.443-4.394-10.574c0-4.132,1.681-7.893,4.394-10.607    C382.994,389.436,386.726,387.74,390.855,387.74z M358.916,397.482c-1.34-1.325-3.193-2.158-5.243-2.158    c-1.958,0-3.73,0.771-5.058,2.004l-0.15,0.154c-1.326,1.357-2.158,3.207-2.158,5.242c0,2.034,0.832,3.884,2.158,5.21    c1.323,1.325,3.172,2.158,5.208,2.158c2.05,0,3.903-0.833,5.243-2.158c1.323-1.326,2.158-3.176,2.158-5.21    C361.074,400.689,360.239,398.84,358.916,397.482z M353.673,387.74c4.148,0,7.894,1.695,10.592,4.377    c2.698,2.715,4.394,6.476,4.394,10.607c0,4.131-1.695,7.861-4.394,10.574s-6.443,4.378-10.592,4.378    c-4.131,0-7.861-1.665-10.574-4.378s-4.38-6.443-4.38-10.574c0-4.132,1.667-7.893,4.38-10.607l0.246-0.215    C346.043,389.344,349.683,387.74,353.673,387.74z M168.75,414.255c0-2.065,1.695-3.762,3.79-3.762    c2.099,0,3.794,1.696,3.794,3.762v22.105h257.608v-67.272h-33.544h-0.109H117.617h-0.108h-0.091H91.011h-0.109h-7.029v13.318    h140.65c2.081,0,3.79,1.695,3.79,3.793c0,2.096-1.709,3.792-3.79,3.792H83.873v46.369h31.849v-22.105    c0-2.065,1.695-3.762,3.791-3.762c2.081,0,3.793,1.696,3.793,3.762v22.105h10.08v-22.105c0-2.065,1.698-3.762,3.793-3.762    s3.794,1.696,3.794,3.762v22.105h10.097v-22.105c0-2.065,1.709-3.762,3.791-3.762s3.793,1.696,3.793,3.762v22.105h10.097V414.255z     M49.897,466.914c-2.099,0-3.793-1.696-3.793-3.792c0-2.097,1.695-3.792,3.793-3.792h295.374c2.099,0,3.793,1.695,3.793,3.792    c0,2.096-1.694,3.792-3.793,3.792H49.897z M222.86,485.999c-2.081,0-3.794-1.696-3.794-3.793c0-2.065,1.713-3.792,3.794-3.792    h204.408c2.081,0,3.793,1.727,3.793,3.792c0,2.097-1.712,3.793-3.793,3.793H222.86z M448.17,485.999    c-2.081,0-3.79-1.696-3.79-3.793c0-2.065,1.709-3.792,3.79-3.792h25.56c2.095,0,3.79,1.727,3.79,3.792    c0,2.097-1.695,3.793-3.79,3.793H448.17z M38.274,485.412c-2.099,0-3.793-1.695-3.793-3.792c0-2.065,1.695-3.761,3.793-3.761    h96.838c2.099,0,3.794,1.695,3.794,3.761c0,2.097-1.695,3.792-3.794,3.792H38.274z M94.788,361.504h18.944V192.703l0.014-1.88    l0.031-1.851l0.063-1.85l0.077-1.85l0.109-1.85l0.123-1.85l0.154-1.818l0.183-1.852l0.186-1.818l0.232-1.818l0.231-1.789    l0.277-1.818l0.277-1.789l0.309-1.787l0.337-1.789l0.354-1.758l0.386-1.757l0.386-1.757l0,0l0.417-1.758l0.432-1.727l0.459-1.758    l0.495-1.695v-0.031l0.495-1.695l0.523-1.695l0.541-1.696v-0.03l0.568-1.664l0.586-1.697l0,0l0.586-1.664l0.646-1.665l0.635-1.634    l0.66-1.665l0.681-1.634l0.709-1.604l0.708-1.604v-0.03l0.741-1.572v-0.032l0.754-1.572l0.786-1.572l0.786-1.572l0.818-1.572l0,0    l0.832-1.541l0,0l0.846-1.541l0.863-1.512l0.895-1.51v-0.031l0.909-1.48l0.913-1.511l0,0l0.937-1.479l0.958-1.449l0.972-1.448    l0.986-1.45l1-1.449l1.018-1.418l1.05-1.387l0,0l1.045-1.388l1.081-1.388l1.078-1.355l1.112-1.357l1.123-1.325v-0.03l1.126-1.326    l1.155-1.295l1.158-1.295l1.2-1.295l1.189-1.265l1.218-1.265l1.218-1.232l1.246-1.233l1.25-1.202l1.263-1.203l1.281-1.171    l1.295-1.171l1.327-1.141l1.327-1.143l1.323-1.109l1.358-1.109l1.372-1.08l1.372-1.078l1.386-1.048l1.418-1.049l1.418-1.018    l1.418-1.017l0,0l1.449-0.987l1.449-0.986l1.481-0.925l1.478-0.956l0,0l1.481-0.925l0,0l1.512-0.895l0,0l1.509-0.894l1.527-0.863    l1.526-0.833h0.014l1.541-0.832l1.558-0.832l0,0l1.572-0.802l0,0l1.572-0.771l0,0l1.604-0.74l0,0l1.604-0.74l0,0l1.604-0.74l0,0    l1.632-0.678l1.618-0.709h0.018l1.632-0.648l0,0l1.635-0.646h0.014l1.649-0.617l1.681-0.586l0,0l1.681-0.616l0,0l1.695-0.556    l1.695-0.523l0,0l1.695-0.523l0,0l1.727-0.525l0,0l1.727-0.462l0,0l1.727-0.462l0,0l1.727-0.432h0.018l1.741-0.432l0,0    l1.758-0.401l0,0l1.758-0.37l0,0l1.772-0.339h0.014l1.772-0.339l0,0l1.772-0.309h0.018l1.786-0.277l0,0l1.804-0.277l1.804-0.246    l1.818-0.217l0,0l1.821-0.215l0,0l1.832-0.154l1.821-0.154l1.85-0.123l1.85-0.124l1.85-0.093l1.85-0.03l1.867-0.063h1.863h1.618    h0.263l1.358,0.03l0.491,0.032l1.109,0.03h0.772h0.031l0.8,0.063l0.786,0.03h0.231l0.555,0.03l0.804,0.063l0.478,0.031h0.323    l0.8,0.061l0.727,0.063h0.063l0.786,0.062l0.8,0.062l0.186,0.031l0.601,0.061l0.786,0.063l0.432,0.031l0.354,0.061l0.786,0.063    l0.678,0.092h0.108l0.786,0.093l0.772,0.124c18.435,2.342,35.807,8.17,51.456,16.771c-9.528-9.312-20.38-17.297-32.235-23.586    c-19.13-10.143-40.927-15.877-64.006-15.877c-37.829,0-72.236,15.477-97.178,40.418c-24.942,24.942-40.433,59.35-40.433,97.18    V361.504z" style="fill-rule:evenodd;clip-rule:evenodd;"/>
</g>
</g>
<g id="Layer_1"/>
</svg>