<?xml version="1.0" encoding="iso-8859-1"?>
<!-- Uploaded to: SVG Repo, www.svgrepo.com, Generator: SVG Repo Mixer Tools -->
<svg version="1.1" id="Capa_1" xmlns="http://www.w3.org/2000/svg" xmlns:xlink="http://www.w3.org/1999/xlink" 
	 viewBox="0 0 320 320" xml:space="preserve">
<g id="XMLID_1068_">
	<polygon id="XMLID_1069_" style="fill:#0052B4;" points="210,140 190,100 230,100 	"/>
	<rect id="XMLID_1070_" x="170" y="60" style="fill:#FFDA44;" width="80" height="40"/>
	<polygon id="XMLID_37_" style="fill:#006DF0;" points="102.651,159.555 65.672,144.308 90,60 131.001,59.834 	"/>
	<path id="XMLID_1071_" style="fill:#0052B4;" d="M120,225c0,19.33-15.67,35-35,35l0,0c-19.33,0-35-15.67-35-35v-70
		c0-19.33,15.67-35,35-35l0,0c19.33,0,35,15.67,35,35V225z"/>
	<rect id="XMLID_1072_" x="20" y="280" style="fill:#0052B4;" width="140" height="40"/>
	<rect id="XMLID_1073_" x="160" y="280" style="fill:#006DF0;" width="140" height="40"/>
	<rect id="XMLID_1074_" x="50" y="240" style="fill:#0052B4;" width="70" height="60"/>
	<polygon id="XMLID_1075_" style="fill:#FFDA44;" points="300,190 20,190 20,240 270,240 300,220 	"/>
	<polygon id="XMLID_1076_" style="fill:#78B9EB;" points="90,60 270,60 270,20 250,0 110,0 90,20 	"/>
</g>
</svg>