<svg xmlns="http://www.w3.org/2000/svg" xmlns:xlink="http://www.w3.org/1999/xlink" version="1.1" width="256" height="256" viewBox="0 0 256 256" xml:space="preserve">

<defs>
</defs>
<g style="stroke: none; stroke-width: 0; stroke-dasharray: none; stroke-linecap: butt; stroke-linejoin: miter; stroke-miterlimit: 10; fill: none; fill-rule: nonzero; opacity: 1;" transform="translate(1.4065934065934016 1.4065934065934016) scale(2.81 2.81)" >
	<path d="M 76.051 90 H 13.95 C 6.258 90 0 83.742 0 76.051 V 13.95 C 0 6.258 6.258 0 13.95 0 h 62.101 C 83.742 0 90 6.258 90 13.95 v 62.101 C 90 83.742 83.742 90 76.051 90 z" style="stroke: none; stroke-width: 1; stroke-dasharray: none; stroke-linecap: butt; stroke-linejoin: miter; stroke-miterlimit: 10; fill: rgb(116,170,156); fill-rule: nonzero; opacity: 1;" transform=" matrix(1 0 0 1 0 0) " stroke-linecap="round" />
	<path d="M 73.301 38.94 l -0.023 -0.019 c 1.458 -4.49 0.933 -9.388 -1.446 -13.465 c -3.614 -6.26 -10.85 -9.498 -17.913 -8.004 l -0.028 0.01 c -3.16 -3.508 -7.664 -5.502 -12.384 -5.48 c -7.229 0 -13.65 4.647 -15.888 11.511 l -0.005 0.03 c -4.618 0.982 -8.597 3.886 -10.938 7.985 c -3.614 6.26 -2.8 14.145 2.025 19.515 l 0.023 0.019 c -1.458 4.49 -0.933 9.389 1.446 13.465 c 3.614 6.26 10.85 9.498 17.913 8.004 l 0.028 -0.01 c 3.16 3.508 7.664 5.502 12.384 5.48 c 7.229 0 13.65 -4.648 15.888 -11.511 l 0.005 -0.03 c 4.618 -0.982 8.597 -3.886 10.938 -7.985 C 78.94 52.195 78.126 44.31 73.301 38.94 z M 51.539 48.756 L 45 52.531 l -6.539 -3.775 v -7.55 L 45 37.431 l 6.539 3.775 V 48.756 z M 68.117 27.6 l -0.03 -0.008 c 1.448 2.508 1.977 5.416 1.498 8.271 l -13.492 -7.789 c -0.175 -0.101 -0.359 -0.173 -0.546 -0.222 c -0.551 -0.155 -1.15 -0.082 -1.667 0.216 l -15.407 8.895 l -0.005 -6.499 l 12.727 -7.351 c 1.231 -0.713 2.572 -1.2 3.96 -1.454 l -0.008 -0.028 C 60.151 20.708 65.416 22.94 68.117 27.6 z M 41.506 16.271 l -0.022 0.022 c 2.896 0 5.679 0.996 7.912 2.838 L 35.905 26.92 c -0.175 0.101 -0.33 0.224 -0.466 0.362 c -0.41 0.4 -0.647 0.955 -0.647 1.552 v 17.791 l -5.631 -3.246 l -0.002 -14.697 c -0.002 -1.422 0.247 -2.827 0.721 -4.157 l -0.028 -0.007 C 31.554 19.723 36.12 16.28 41.506 16.271 z M 18.389 33.652 l 0.008 0.03 c 1.448 -2.508 3.702 -4.42 6.414 -5.433 v 15.579 c 0 0.202 0.029 0.397 0.081 0.584 c 0.141 0.555 0.504 1.038 1.02 1.336 l 15.407 8.895 l -5.626 3.254 L 22.964 50.55 c -1.233 -0.71 -2.325 -1.627 -3.239 -2.702 l -0.02 0.021 C 16.403 43.997 15.704 38.321 18.389 33.652 z M 21.883 62.362 l 0.03 0.008 c -1.448 -2.508 -1.977 -5.416 -1.498 -8.271 l 13.492 7.789 c 0.175 0.101 0.359 0.173 0.546 0.222 c 0.551 0.155 1.15 0.083 1.667 -0.216 L 51.527 53 l 0.005 6.499 L 38.805 66.85 c -1.231 0.713 -2.572 1.2 -3.96 1.454 l 0.008 0.028 C 29.849 69.255 24.584 67.023 21.883 62.362 z M 48.494 73.691 l 0.022 -0.022 c -2.896 0 -5.679 -0.996 -7.912 -2.838 l 13.492 -7.789 c 0.175 -0.101 0.329 -0.224 0.466 -0.362 c 0.41 -0.4 0.647 -0.955 0.647 -1.552 v -17.79 l 5.631 3.246 l 0.002 14.697 c 0.002 1.422 -0.247 2.827 -0.721 4.157 l 0.028 0.007 C 58.446 70.239 53.88 73.683 48.494 73.691 z M 71.611 56.311 L 71.611 56.311 l -0.008 -0.03 c -1.448 2.508 -3.702 4.42 -6.414 5.433 V 46.135 c 0 -0.202 -0.029 -0.397 -0.081 -0.584 c -0.141 -0.555 -0.504 -1.038 -1.02 -1.336 L 48.681 35.32 l 5.626 -3.254 l 12.729 7.346 c 1.233 0.71 2.325 1.627 3.239 2.703 l 0.02 -0.021 C 73.597 45.966 74.296 51.641 71.611 56.311 z" style="stroke: none; stroke-width: 1; stroke-dasharray: none; stroke-linecap: butt; stroke-linejoin: miter; stroke-miterlimit: 10; fill: rgb(255,255,255); fill-rule: nonzero; opacity: 1;" transform=" matrix(1 0 0 1 0 0) " stroke-linecap="round" />
</g>
</svg>