<?xml version="1.0" ?><svg id="OBJECT" viewBox="0 0 512 512" xmlns="http://www.w3.org/2000/svg"><defs><style>.cls-1{fill:#3d9ae2;}.cls-2{fill:#bddbff;}.cls-3{fill:#fff;}</style></defs><title/><path class="cls-1" d="M256,482a7.5,7.5,0,0,1-7.5-7.5v-357a7.5,7.5,0,0,1,15,0v357A7.5,7.5,0,0,1,256,482Z"/><rect class="cls-2" height="110" rx="20" ry="20" width="497" x="7.5" y="7.5"/><path class="cls-1" d="M484.5,125H27.5A27.54,27.54,0,0,1,0,97.5v-70A27.54,27.54,0,0,1,27.5,0h457A27.54,27.54,0,0,1,512,27.5v70A27.54,27.54,0,0,1,484.5,125ZM27.5,15A12.52,12.52,0,0,0,15,27.5v70A12.52,12.52,0,0,0,27.5,110h457A12.52,12.52,0,0,0,497,97.5v-70A12.52,12.52,0,0,0,484.5,15Z"/><rect class="cls-3" height="50" rx="10" ry="10" width="260" x="42.5" y="37.5"/><path class="cls-1" d="M292.5,95H52.5A17.52,17.52,0,0,1,35,77.5v-30A17.52,17.52,0,0,1,52.5,30h240A17.52,17.52,0,0,1,310,47.5v30A17.52,17.52,0,0,1,292.5,95ZM52.5,45A2.5,2.5,0,0,0,50,47.5v30A2.5,2.5,0,0,0,52.5,80h240a2.5,2.5,0,0,0,2.5-2.5v-30a2.5,2.5,0,0,0-2.5-2.5Z"/><rect class="cls-3" height="40" rx="10" ry="10" width="40" x="434.5" y="42.5"/><path class="cls-1" d="M464.5,90h-20A17.52,17.52,0,0,1,427,72.5v-20A17.52,17.52,0,0,1,444.5,35h20A17.52,17.52,0,0,1,482,52.5v20A17.52,17.52,0,0,1,464.5,90Zm-20-40a2.5,2.5,0,0,0-2.5,2.5v20a2.5,2.5,0,0,0,2.5,2.5h20a2.5,2.5,0,0,0,2.5-2.5v-20a2.5,2.5,0,0,0-2.5-2.5Z"/><rect class="cls-3" height="40" rx="10" ry="10" width="40" x="364.5" y="42.5"/><path class="cls-1" d="M394.5,90h-20A17.52,17.52,0,0,1,357,72.5v-20A17.52,17.52,0,0,1,374.5,35h20A17.52,17.52,0,0,1,412,52.5v20A17.52,17.52,0,0,1,394.5,90Zm-20-40a2.5,2.5,0,0,0-2.5,2.5v20a2.5,2.5,0,0,0,2.5,2.5h20a2.5,2.5,0,0,0,2.5-2.5v-20a2.5,2.5,0,0,0-2.5-2.5Z"/><rect class="cls-2" height="110" rx="20" ry="20" width="497" x="7.5" y="153.79"/><path class="cls-1" d="M484.5,271.29H27.5A27.53,27.53,0,0,1,0,243.79v-70a27.54,27.54,0,0,1,27.5-27.5h457a27.54,27.54,0,0,1,27.5,27.5v70A27.53,27.53,0,0,1,484.5,271.29Zm-457-110A12.52,12.52,0,0,0,15,173.79v70a12.51,12.51,0,0,0,12.5,12.5h457a12.51,12.51,0,0,0,12.5-12.5v-70a12.52,12.52,0,0,0-12.5-12.5Z"/><rect class="cls-3" height="50" rx="10" ry="10" width="260" x="42.5" y="183.79"/><path class="cls-1" d="M292.5,241.29H52.5A17.52,17.52,0,0,1,35,223.79v-30a17.52,17.52,0,0,1,17.5-17.5h240a17.52,17.52,0,0,1,17.5,17.5v30A17.52,17.52,0,0,1,292.5,241.29Zm-240-50a2.51,2.51,0,0,0-2.5,2.5v30a2.5,2.5,0,0,0,2.5,2.5h240a2.5,2.5,0,0,0,2.5-2.5v-30a2.51,2.51,0,0,0-2.5-2.5Z"/><rect class="cls-3" height="40" rx="10" ry="10" width="40" x="434.5" y="188.79"/><path class="cls-1" d="M464.5,236.29h-20a17.52,17.52,0,0,1-17.5-17.5v-20a17.52,17.52,0,0,1,17.5-17.5h20a17.52,17.52,0,0,1,17.5,17.5v20A17.52,17.52,0,0,1,464.5,236.29Zm-20-40a2.51,2.51,0,0,0-2.5,2.5v20a2.5,2.5,0,0,0,2.5,2.5h20a2.5,2.5,0,0,0,2.5-2.5v-20a2.51,2.51,0,0,0-2.5-2.5Z"/><rect class="cls-3" height="40" rx="10" ry="10" width="40" x="364.5" y="188.79"/><path class="cls-1" d="M394.5,236.29h-20a17.52,17.52,0,0,1-17.5-17.5v-20a17.52,17.52,0,0,1,17.5-17.5h20a17.52,17.52,0,0,1,17.5,17.5v20A17.52,17.52,0,0,1,394.5,236.29Zm-20-40a2.51,2.51,0,0,0-2.5,2.5v20a2.5,2.5,0,0,0,2.5,2.5h20a2.5,2.5,0,0,0,2.5-2.5v-20a2.51,2.51,0,0,0-2.5-2.5Z"/><rect class="cls-2" height="110" rx="20" ry="20" width="497" x="7.5" y="300.09"/><path class="cls-1" d="M484.5,417.59H27.5A27.54,27.54,0,0,1,0,390.09v-70a27.53,27.53,0,0,1,27.5-27.5h457a27.53,27.53,0,0,1,27.5,27.5v70A27.54,27.54,0,0,1,484.5,417.59Zm-457-110A12.51,12.51,0,0,0,15,320.09v70a12.52,12.52,0,0,0,12.5,12.5h457a12.52,12.52,0,0,0,12.5-12.5v-70a12.51,12.51,0,0,0-12.5-12.5Z"/><rect class="cls-3" height="50" rx="10" ry="10" width="260" x="42.5" y="330.09"/><path class="cls-1" d="M292.5,387.59H52.5A17.52,17.52,0,0,1,35,370.09v-30a17.52,17.52,0,0,1,17.5-17.5h240a17.52,17.52,0,0,1,17.5,17.5v30A17.52,17.52,0,0,1,292.5,387.59Zm-240-50a2.5,2.5,0,0,0-2.5,2.5v30a2.5,2.5,0,0,0,2.5,2.5h240a2.5,2.5,0,0,0,2.5-2.5v-30a2.5,2.5,0,0,0-2.5-2.5Z"/><rect class="cls-3" height="40" rx="10" ry="10" width="40" x="434.5" y="335.09"/><path class="cls-1" d="M464.5,382.59h-20a17.52,17.52,0,0,1-17.5-17.5v-20a17.52,17.52,0,0,1,17.5-17.5h20a17.52,17.52,0,0,1,17.5,17.5v20A17.52,17.52,0,0,1,464.5,382.59Zm-20-40a2.5,2.5,0,0,0-2.5,2.5v20a2.5,2.5,0,0,0,2.5,2.5h20a2.5,2.5,0,0,0,2.5-2.5v-20a2.5,2.5,0,0,0-2.5-2.5Z"/><rect class="cls-3" height="40" rx="10" ry="10" width="40" x="364.5" y="335.09"/><path class="cls-1" d="M394.5,382.59h-20a17.52,17.52,0,0,1-17.5-17.5v-20a17.52,17.52,0,0,1,17.5-17.5h20a17.52,17.52,0,0,1,17.5,17.5v20A17.52,17.52,0,0,1,394.5,382.59Zm-20-40a2.5,2.5,0,0,0-2.5,2.5v20a2.5,2.5,0,0,0,2.5,2.5h20a2.5,2.5,0,0,0,2.5-2.5v-20a2.5,2.5,0,0,0-2.5-2.5Z"/><path class="cls-1" d="M504.5,482H7.5a7.5,7.5,0,0,1,0-15h497a7.5,7.5,0,0,1,0,15Z"/><circle class="cls-2" cx="256" cy="474.5" r="30"/><path class="cls-1" d="M256,512a37.5,37.5,0,1,1,37.5-37.5A37.54,37.54,0,0,1,256,512Zm0-60a22.5,22.5,0,1,0,22.5,22.5A22.52,22.52,0,0,0,256,452Z"/></svg>